# xmcd
#
# Track frame offsets:
#	151
#	30514
#	48559
#	69780
#	81621
#	110932
#	136337
#	168146
#	190565
#	204298
#	217557
#	230512
#	257609
#	274778
#
# Disc length: 3864
#
# Revision: 1
# Processed by: cddbd v1.5.1PL0 Copyright (c) Steve Scherf et al.
# Submitted via: EasyCDDAExtractor 7.1.3.1
# Normalized: r0:DSETVAR1
#
DISCID=ba0f160e
DTITLE=Various Artist - Lucerne Blues Festival 1999 CD2
DYEAR=2000
DGENRE=Blues
TTITLE0=Terry Evans - The River
TTITLE1=Harmonica Slim - Coal Black Mare
TTITLE2=Egidio Juke Ingala Band - You Don't Even Know
TTITLE3=Keith B. Brown - Busted
TTITLE4=Pinetop Perkins - Sweet Black Angel
TTITLE5=Fred James - Full Moon On Main Street
TTITLE6=Big Jack Johnson and The Oilers - I'm Your Oilman
TTITLE7=Big Bill Morganfield - Child Of Mercy
TTITLE8=Johnny Jones - No More One More Chance
TTITLE9=Michael Roach - Batman and Bruce Lee Blues
TTITLE10=Anson Funderburgh and The Rockets Feat. Sam Myers - Change In My Pocket
TTITLE11=Charles Walker - Even The Sky Is Blue
TTITLE12=Robert Lockwood Jr. - I'm So In Love With You
TTITLE13=Bob Margolin - Hold Me To It
EXTD=
EXTT0=
EXTT1=
EXTT2=
EXTT3=
EXTT4=
EXTT5=
EXTT6=
EXTT7=
EXTT8=
EXTT9=
EXTT10=
EXTT11=
EXTT12=
EXTT13=
PLAYORDER=
